<svg id="wave" style="transform:rotate(0deg); transition: 0.3s" viewBox="0 0 1440 490" version="1.1" xmlns="http://www.w3.org/2000/svg"><defs><linearGradient id="sw-gradient-0" x1="0" x2="0" y1="1" y2="0"><stop stop-color="rgba(62, 175.556, 243, 1)" offset="0%"></stop><stop stop-color="rgba(68.335, 158.265, 239.383, 1)" offset="100%"></stop></linearGradient></defs><path style="transform:translate(0, 0px); opacity:1" fill="url(#sw-gradient-0)" d="M0,98L120,114.3C240,131,480,163,720,187.8C960,212,1200,229,1440,228.7C1680,229,1920,212,2160,187.8C2400,163,2640,131,2880,114.3C3120,98,3360,98,3600,106.2C3840,114,4080,131,4320,114.3C4560,98,4800,49,5040,73.5C5280,98,5520,196,5760,220.5C6000,245,6240,196,6480,179.7C6720,163,6960,180,7200,155.2C7440,131,7680,65,7920,106.2C8160,147,8400,294,8640,334.8C8880,376,9120,310,9360,269.5C9600,229,9840,212,10080,196C10320,180,10560,163,10800,187.8C11040,212,11280,278,11520,253.2C11760,229,12000,114,12240,81.7C12480,49,12720,98,12960,171.5C13200,245,13440,343,13680,359.3C13920,376,14160,310,14400,285.8C14640,261,14880,278,15120,261.3C15360,245,15600,196,15840,171.5C16080,147,16320,147,16560,122.5C16800,98,17040,49,17160,24.5L17280,0L17280,490L17160,490C17040,490,16800,490,16560,490C16320,490,16080,490,15840,490C15600,490,15360,490,15120,490C14880,490,14640,490,14400,490C14160,490,13920,490,13680,490C13440,490,13200,490,12960,490C12720,490,12480,490,12240,490C12000,490,11760,490,11520,490C11280,490,11040,490,10800,490C10560,490,10320,490,10080,490C9840,490,9600,490,9360,490C9120,490,8880,490,8640,490C8400,490,8160,490,7920,490C7680,490,7440,490,7200,490C6960,490,6720,490,6480,490C6240,490,6000,490,5760,490C5520,490,5280,490,5040,490C4800,490,4560,490,4320,490C4080,490,3840,490,3600,490C3360,490,3120,490,2880,490C2640,490,2400,490,2160,490C1920,490,1680,490,1440,490C1200,490,960,490,720,490C480,490,240,490,120,490L0,490Z"></path></svg>