<svg id="wave" style="transform:rotate(0deg); transition: 0.3s" viewBox="0 0 1440 490" version="1.1" xmlns="http://www.w3.org/2000/svg"><defs><linearGradient id="sw-gradient-0" x1="0" x2="0" y1="1" y2="0"><stop stop-color="rgba(62, 151.031, 243, 1)" offset="0%"></stop><stop stop-color="rgba(58.396, 115.144, 255, 1)" offset="100%"></stop></linearGradient></defs><path style="transform:translate(0, 0px); opacity:1" fill="url(#sw-gradient-0)" d="M0,196L60,163.3C120,131,240,65,360,32.7C480,0,600,0,720,65.3C840,131,960,261,1080,269.5C1200,278,1320,163,1440,130.7C1560,98,1680,147,1800,155.2C1920,163,2040,131,2160,155.2C2280,180,2400,261,2520,302.2C2640,343,2760,343,2880,318.5C3000,294,3120,245,3240,228.7C3360,212,3480,229,3600,253.2C3720,278,3840,310,3960,277.7C4080,245,4200,147,4320,89.8C4440,33,4560,16,4680,40.8C4800,65,4920,131,5040,204.2C5160,278,5280,359,5400,334.8C5520,310,5640,180,5760,147C5880,114,6000,180,6120,245C6240,310,6360,376,6480,400.2C6600,425,6720,408,6840,343C6960,278,7080,163,7200,130.7C7320,98,7440,147,7560,204.2C7680,261,7800,327,7920,302.2C8040,278,8160,163,8280,130.7C8400,98,8520,147,8580,171.5L8640,196L8640,490L8580,490C8520,490,8400,490,8280,490C8160,490,8040,490,7920,490C7800,490,7680,490,7560,490C7440,490,7320,490,7200,490C7080,490,6960,490,6840,490C6720,490,6600,490,6480,490C6360,490,6240,490,6120,490C6000,490,5880,490,5760,490C5640,490,5520,490,5400,490C5280,490,5160,490,5040,490C4920,490,4800,490,4680,490C4560,490,4440,490,4320,490C4200,490,4080,490,3960,490C3840,490,3720,490,3600,490C3480,490,3360,490,3240,490C3120,490,3000,490,2880,490C2760,490,2640,490,2520,490C2400,490,2280,490,2160,490C2040,490,1920,490,1800,490C1680,490,1560,490,1440,490C1320,490,1200,490,1080,490C960,490,840,490,720,490C600,490,480,490,360,490C240,490,120,490,60,490L0,490Z"></path></svg>