<svg id="wave" style="transform:rotate(0deg); transition: 0.3s" viewBox="0 0 1920 884" version="1.1" xmlns="http://www.w3.org/2000/svg"><defs><linearGradient id="sw-gradient-0" x1="0" x2="0" y1="1" y2="0"><stop stop-color="rgba(56.957, 194.623, 255, 1)" offset="0%"></stop><stop stop-color="rgba(21.704, 172.134, 218.892, 1)" offset="100%"></stop></linearGradient></defs><path style="transform:translate(0, 0px); opacity:1" fill="url(#sw-gradient-0)" d="M0,147L80,155.2C160,163,320,180,480,179.7C640,180,800,163,960,138.8C1120,114,1280,82,1440,106.2C1600,131,1760,212,1920,212.3C2080,212,2240,131,2400,89.8C2560,49,2720,49,2880,40.8C3040,33,3200,16,3360,40.8C3520,65,3680,131,3840,138.8C4000,147,4160,98,4320,89.8C4480,82,4640,114,4800,179.7C4960,245,5120,343,5280,359.3C5440,376,5600,310,5760,310.3C5920,310,6080,376,6240,400.2C6400,425,6560,408,6720,343C6880,278,7040,163,7200,138.8C7360,114,7520,180,7680,212.3C7840,245,8000,245,8160,253.2C8320,261,8480,278,8640,285.8C8800,294,8960,294,9120,277.7C9280,261,9440,229,9600,220.5C9760,212,9920,229,10080,253.2C10240,278,10400,310,10560,318.5C10720,327,10880,310,11040,302.2C11200,294,11360,294,11440,294L11520,294L11520,490L11440,490C11360,490,11200,490,11040,490C10880,490,10720,490,10560,490C10400,490,10240,490,10080,490C9920,490,9760,490,9600,490C9440,490,9280,490,9120,490C8960,490,8800,490,8640,490C8480,490,8320,490,8160,490C8000,490,7840,490,7680,490C7520,490,7360,490,7200,490C7040,490,6880,490,6720,490C6560,490,6400,490,6240,490C6080,490,5920,490,5760,490C5600,490,5440,490,5280,490C5120,490,4960,490,4800,490C4640,490,4480,490,4320,490C4160,490,4000,490,3840,490C3680,490,3520,490,3360,490C3200,490,3040,490,2880,490C2720,490,2560,490,2400,490C2240,490,2080,490,1920,490C1760,490,1600,490,1440,490C1280,490,1120,490,960,490C800,490,640,490,480,490C320,490,160,490,80,490L0,490Z"></path></svg>